# xmcd
#
# Track frame offsets: 
#        150
#        19962
#        37825
#        58570
#        75007
#        92312
#        108232
#        129425
#        148107
#        167067
#        186637
#        203372
#        217937
#
# Disc length: 3123 seconds
#
# Revision: 2
# Processed by: cddbd v1.5.2PL0 Copyright (c) Steve Scherf et al.
# Submitted via: ExactAudioCopy v1.3
#
DISCID=9d0c310d
DTITLE=Anne Murray - Anne Murray
DYEAR=1996
DGENRE=Country
TTITLE0=That's The Way It Goes
TTITLE1=That's What My Love Is For (with Aaron Neville)
TTITLE2=What Would It Take
TTITLE3=Me Too
TTITLE4=I Know Too Much
TTITLE5=Fools Like Me
TTITLE6=Trust Me Baby, This Is Love
TTITLE7=The Other Side
TTITLE8=Until I Was Loved By You
TTITLE9=Highway, Highway
TTITLE10=Shame On Me
TTITLE11=Missing You
TTITLE12=Good Again
EXTD=
EXTT0=
EXTT1=
EXTT2=
EXTT3=
EXTT4=
EXTT5=
EXTT6=
EXTT7=
EXTT8=
EXTT9=
EXTT10=
EXTT11=
EXTT12=
PLAYORDER=
